<?xml version="1.0" encoding="UTF-8"?>
<svg version="1.1" xmlns="http://www.w3.org/2000/svg" width="500" height="500">
<path d="M0,0 L500,0 L500,500 L0,500 Z " fill="#191818" transform="translate(0,0)"/>
<path d="M0,0 L73,0 L73,3 L74,3 L74,8 L75,8 L75,12 L76,12 L76,17 L77,17 L77,24 L78,24 L78,29 L79,29 L79,33 L80,33 L80,38 L81,38 L81,43 L82,43 L82,50 L83,50 L83,55 L84,55 L84,59 L85,59 L85,64 L86,64 L86,71 L87,71 L87,76 L88,76 L88,80 L89,80 L89,85 L90,85 L90,92 L91,92 L91,97 L92,97 L92,101 L93,101 L93,106 L94,106 L94,113 L95,113 L95,118 L96,118 L96,123 L97,123 L97,127 L98,127 L98,132 L99,132 L99,139 L100,139 L100,144 L101,144 L101,148 L102,148 L102,153 L103,153 L103,160 L104,160 L104,165 L105,165 L105,169 L106,169 L106,174 L107,174 L107,181 L108,181 L108,186 L109,186 L109,190 L110,190 L110,195 L111,195 L111,200 L112,200 L112,207 L113,207 L113,212 L114,212 L114,216 L115,216 L115,221 L116,221 L116,228 L117,228 L117,233 L118,233 L118,237 L119,237 L119,242 L120,242 L120,249 L121,249 L121,254 L122,254 L122,258 L123,258 L123,263 L124,263 L124,268 L125,268 L125,275 L126,275 L126,280 L127,280 L127,284 L128,284 L128,289 L129,289 L129,296 L130,296 L130,301 L131,301 L131,305 L132,305 L132,310 L133,310 L133,317 L134,317 L134,322 L135,322 L135,326 L136,326 L136,331 L137,331 L137,338 L138,338 L138,343 L139,343 L139,348 L140,348 L140,352 L141,352 L141,357 L142,357 L142,364 L143,364 L143,369 L144,369 L144,373 L145,373 L145,378 L146,378 L146,385 L147,385 L147,390 L148,390 L148,394 L149,394 L149,399 L150,399 L150,406 L151,406 L151,411 L152,411 L152,416 L153,416 L153,420 L154,420 L154,425 L155,425 L155,432 L156,432 L156,437 L157,437 L157,441 L158,441 L158,448 L109,448 L109,447 L108,447 L108,440 L107,440 L107,435 L106,435 L106,431 L105,431 L105,426 L104,426 L104,421 L103,421 L103,414 L102,414 L102,409 L101,409 L101,405 L100,405 L100,400 L99,400 L99,395 L98,395 L98,388 L97,388 L97,383 L96,383 L96,378 L95,378 L95,372 L94,372 L94,367 L93,367 L93,362 L92,362 L92,357 L91,357 L91,351 L90,351 L90,346 L89,346 L89,341 L88,341 L88,335 L87,335 L87,329 L86,329 L86,322 L85,322 L85,317 L84,317 L84,309 L83,309 L83,304 L82,304 L82,299 L81,299 L81,297 L80,297 L80,296 L79,296 L79,294 L78,294 L78,293 L77,293 L77,292 L76,292 L76,291 L75,291 L75,290 L74,290 L74,288 L73,288 L73,287 L71,287 L71,286 L70,286 L70,285 L69,285 L69,284 L68,284 L68,283 L67,283 L67,282 L65,282 L65,281 L64,281 L64,280 L62,280 L62,279 L60,279 L60,278 L58,278 L58,277 L56,277 L56,276 L54,276 L54,275 L51,275 L51,274 L49,274 L49,273 L44,273 L44,272 L39,272 L39,271 L25,271 L25,272 L20,272 L20,273 L18,273 L18,274 L14,274 L14,275 L11,275 L11,276 L9,276 L9,277 L7,277 L7,278 L5,278 L5,279 L4,279 L4,280 L2,280 L2,281 L0,281 L0,282 L-1,282 L-1,283 L-2,283 L-2,284 L-4,284 L-4,285 L-5,285 L-5,286 L-6,286 L-6,287 L-7,287 L-7,288 L-8,288 L-8,289 L-9,289 L-9,290 L-10,290 L-10,291 L-11,291 L-11,293 L-12,293 L-12,299 L-13,299 L-13,302 L-14,302 L-14,308 L-15,308 L-15,316 L-16,316 L-16,322 L-17,322 L-17,328 L-18,328 L-18,334 L-19,334 L-19,340 L-20,340 L-20,346 L-21,346 L-21,351 L-22,351 L-22,356 L-23,356 L-23,363 L-24,363 L-24,369 L-25,369 L-25,374 L-26,374 L-26,379 L-27,379 L-27,385 L-28,385 L-28,390 L-29,390 L-29,396 L-30,396 L-30,401 L-31,401 L-31,408 L-32,408 L-32,412 L-33,412 L-33,417 L-34,417 L-34,424 L-35,424 L-35,429 L-36,429 L-36,433 L-37,433 L-37,438 L-38,438 L-38,445 L-39,445 L-39,448 L-85,448 L-85,443 L-84,443 L-84,439 L-83,439 L-83,434 L-82,434 L-82,427 L-81,427 L-81,422 L-80,422 L-80,418 L-79,418 L-79,413 L-78,413 L-78,408 L-77,408 L-77,401 L-76,401 L-76,396 L-75,396 L-75,392 L-74,392 L-74,387 L-73,387 L-73,380 L-72,380 L-72,375 L-71,375 L-71,371 L-70,371 L-70,366 L-69,366 L-69,361 L-68,361 L-68,354 L-67,354 L-67,349 L-66,349 L-66,345 L-65,345 L-65,340 L-64,340 L-64,333 L-63,333 L-63,328 L-62,328 L-62,324 L-61,324 L-61,319 L-60,319 L-60,314 L-59,314 L-59,307 L-58,307 L-58,302 L-57,302 L-57,298 L-56,298 L-56,293 L-55,293 L-55,286 L-54,286 L-54,281 L-53,281 L-53,277 L-52,277 L-52,272 L-51,272 L-51,267 L-50,267 L-50,260 L-49,260 L-49,255 L-48,255 L-48,251 L-47,251 L-47,246 L-46,246 L-46,239 L-45,239 L-45,234 L-44,234 L-44,230 L-43,230 L-43,225 L-42,225 L-42,220 L-41,220 L-41,213 L-40,213 L-40,208 L-39,208 L-39,204 L-38,204 L-38,199 L-37,199 L-37,192 L-36,192 L-36,187 L-35,187 L-35,183 L-34,183 L-34,178 L-33,178 L-33,173 L-32,173 L-32,166 L-31,166 L-31,161 L-30,161 L-30,157 L-29,157 L-29,152 L-28,152 L-28,145 L-27,145 L-27,140 L-26,140 L-26,136 L-25,136 L-25,131 L-24,131 L-24,126 L-23,126 L-23,119 L-22,119 L-22,114 L-21,114 L-21,110 L-20,110 L-20,105 L-19,105 L-19,98 L-18,98 L-18,93 L-17,93 L-17,89 L-16,89 L-16,84 L-15,84 L-15,79 L-14,79 L-14,72 L-13,72 L-13,67 L-12,67 L-12,63 L-11,63 L-11,58 L-10,58 L-10,51 L-9,51 L-9,46 L-8,46 L-8,42 L-7,42 L-7,37 L-6,37 L-6,32 L-5,32 L-5,25 L-4,25 L-4,20 L-3,20 L-3,16 L-2,16 L-2,11 L-1,11 L-1,4 L0,4 Z " fill="#14B7A5" transform="translate(213,27)"/>
<path d="M0,0 L1,0 L1,1 L2,1 L2,4 L3,4 L3,9 L4,9 L4,14 L5,14 L5,21 L6,21 L6,26 L7,26 L7,31 L8,31 L8,35 L9,35 L9,40 L10,40 L10,45 L11,45 L11,50 L12,50 L12,55 L13,55 L13,62 L14,62 L14,67 L15,67 L15,72 L16,72 L16,77 L17,77 L17,81 L18,81 L18,86 L19,86 L19,91 L20,91 L20,96 L21,96 L21,103 L22,103 L22,108 L23,108 L23,113 L24,113 L24,118 L25,118 L25,122 L26,122 L26,127 L27,127 L27,132 L28,132 L28,137 L29,137 L29,144 L30,144 L30,149 L31,149 L31,154 L32,154 L32,159 L33,159 L33,163 L34,163 L34,168 L35,168 L35,173 L36,173 L36,178 L37,178 L37,185 L38,185 L38,190 L39,190 L39,195 L40,195 L40,200 L41,200 L41,204 L42,204 L42,209 L43,209 L43,214 L44,214 L44,219 L45,219 L45,224 L46,224 L46,231 L47,231 L47,236 L46,236 L46,235 L45,235 L45,234 L44,234 L44,233 L43,233 L43,232 L42,232 L42,231 L41,231 L41,229 L40,229 L40,228 L38,228 L38,227 L37,227 L37,226 L36,226 L36,225 L35,225 L35,224 L34,224 L34,223 L32,223 L32,222 L31,222 L31,221 L29,221 L29,220 L27,220 L27,219 L25,219 L25,218 L23,218 L23,217 L21,217 L21,216 L18,216 L18,215 L16,215 L16,214 L11,214 L11,213 L6,213 L6,212 L-8,212 L-8,213 L-13,213 L-13,214 L-15,214 L-15,215 L-19,215 L-19,216 L-22,216 L-22,217 L-24,217 L-24,218 L-26,218 L-26,219 L-28,219 L-28,220 L-29,220 L-29,221 L-31,221 L-31,222 L-33,222 L-33,223 L-34,223 L-34,224 L-35,224 L-35,225 L-37,225 L-37,226 L-38,226 L-38,227 L-39,227 L-39,228 L-40,228 L-40,229 L-41,229 L-41,230 L-42,230 L-42,231 L-43,231 L-43,232 L-44,232 L-44,228 L-43,228 L-43,224 L-42,224 L-42,219 L-41,219 L-41,214 L-40,214 L-40,207 L-39,207 L-39,202 L-38,202 L-38,198 L-37,198 L-37,193 L-36,193 L-36,186 L-35,186 L-35,181 L-34,181 L-34,177 L-33,177 L-33,172 L-32,172 L-32,165 L-31,165 L-31,160 L-30,160 L-30,156 L-29,156 L-29,151 L-28,151 L-28,144 L-27,144 L-27,139 L-26,139 L-26,135 L-25,135 L-25,130 L-24,130 L-24,123 L-23,123 L-23,118 L-22,118 L-22,113 L-21,113 L-21,109 L-20,109 L-20,104 L-19,104 L-19,97 L-18,97 L-18,92 L-17,92 L-17,88 L-16,88 L-16,83 L-15,83 L-15,76 L-14,76 L-14,71 L-13,71 L-13,67 L-12,67 L-12,62 L-11,62 L-11,55 L-10,55 L-10,50 L-9,50 L-9,45 L-8,45 L-8,41 L-7,41 L-7,36 L-6,36 L-6,29 L-5,29 L-5,24 L-4,24 L-4,20 L-3,20 L-3,15 L-2,15 L-2,8 L-1,8 L-1,3 L0,3 Z " fill="#FCFEFD" transform="translate(246,86)"/>
</svg>